<?xml version="1.0" encoding="UTF-8" standalone="no"?>
<!-- Created with Inkscape (http://www.inkscape.org/) -->

<svg xmlns="http://www.w3.org/2000/svg" width="160" height="50" fill="none" style="background-color:black; margin-left:4px; margin-top:2px;"><path fill="#fff" d="M51.768 25.226c-4.688 0-7.267-2.964-7.267-7.235 0-4.615 2.538-7.379 7.188-7.379 2.384 0 3.594.505 4.083.725l-.566 1.632c-.74-.222-1.504-.524-3.477-.542-2.775 0-5.117 1.531-5.117 5.361s2.44 5.604 5.508 5.604c1.778 0 2.578-.243 3.163-.425l.528 1.675c-.624.22-1.796.584-4.044.584M65.246 25.024V18.27c0-1.672-.273-2.762-1.992-2.762-1.171 0-2.597.947-3.086 1.229v8.284h-1.992V9.826h1.992v5.363c.781-.544 1.876-1.471 3.654-1.471 3.202 0 3.399 2.196 3.399 4.253v7.055h-1.973zM75.053 15.39c-2.365 0-2.989 2.138-2.989 4.152 0 2.178.722 4.052 3.03 4.052s2.928-1.956 2.928-4.072c0-1.956-.546-4.132-2.97-4.132m-.117 9.876c-3.087 0-4.885-2.077-4.885-5.623 0-3.769 2.092-5.905 5.06-5.905 3.34 0 4.982 2.055 4.982 5.784s-2.246 5.744-5.157 5.744M89 15.833c-.353-.122-.684-.163-1.29-.163-1.212 0-2.188.746-2.677 1.471v7.883h-1.994V14.018h1.994v1.471c.508-.826 1.68-1.672 2.97-1.672.625 0 1.054.06 1.31.141zM98.123 25.024v-1.25c-.782.545-2.07 1.512-3.732 1.512-3.106 0-3.36-2.216-3.36-4.273v-6.995h1.973v6.691c0 1.674.215 2.782 1.953 2.782 1.036 0 2.677-.987 3.166-1.271v-8.202h1.953v11.006zM106.405 25.226c-1.466 0-2.911-.264-3.458-.445l.254-1.691c.82.18 2.111.403 2.929.403 1.642 0 2.444-.566 2.444-1.412 0-2.238-5.373-1.207-5.373-5.119 0-2.136 1.719-3.185 3.868-3.185 1.232 0 2.344.262 2.852.465l-.35 1.592c-.625-.14-1.407-.383-2.598-.383-1.27 0-1.776.564-1.776 1.289 0 2.277 5.332 1.553 5.332 5.16 0 2.641-2.365 3.326-4.122 3.326M113.574 25.024v-14.25h2.051V23.27h5.997v1.754zM123.889 14.018h1.993v11.006h-1.993zm.977-1.813-1.543-1.613L124.866 9l1.563 1.592zM136.078 11.439s-1.055-.223-1.915-.223c-1.387 0-2.167.564-2.167 2.015v.787h2.325v1.614h-2.325V29.46h-1.955V15.632h-1.563v-1.614h1.563v-.846c0-3.205 2.073-3.749 4.122-3.749.704 0 1.876.242 2.286.403l-.369 1.612zM140.392 15.328c-1.349 0-2.542.989-2.696 3.185h4.904c.019-1.995-.822-3.185-2.208-3.185m-2.736 4.676c.058 2.985 1.62 3.467 3.71 3.467.743 0 2.15-.163 2.735-.302l.331 1.632c-.566.203-2.246.404-3.535.404-3.205 0-5.237-1.23-5.237-5.503s2.131-5.946 4.963-5.946 4.065 1.955 4.065 5.502v.744h-7.034z"></path><path fill="#9D7838" d="m14.289 18.032-.012-.009zM33.691 10.45l8.81-6.632-.552-.808-9.157 6.17C24.767-1.315 10.125.06 10.125.06l-.037 1.27S23.992.657 31.12 10.307l-6.997 4.716c-.081-.482-.243-1.062-.243-1.062-.548-1.494-1.397-3.048-3.279-4.003-1.318-.67-2.398-.806-3.502-.785-2.696.08-4.757 2.198-4.757 4.905a4.95 4.95 0 0 0 1.94 3.95c-.087-.076-.176-.158-.284-.235.112.08.203.163.295.242q.058.043.12.085-.06-.04-.118-.083c.077.066.156.127.252.179l.01.008c1.096.846 2.992.913 2.992.913-8.19 5.23-7.33 9.09-7.33 9.09 4.06 1.317 10.336-.357 13.323-2.512.427 1.434.794 3.773-.578 5.492-.687.862-1.855 1.297-3.47 1.297a16 16 0 0 1-1.483-.083c-.931-.09-4.66-.588-7.109-.777-3.346-.26-6.093.26-8.102 1.53-.781.492-1.64 1.42-2.055 2.539 0 0-.408.98-.739 2.29h2.55c.227-1.492 1.068-2.51 1.566-2.924.982-.814 2.596-1.225 4.798-1.225 2.86 0 7.01.661 8.59.826 0 0 1.053.127 1.555.127 2.306 0 4.392-.784 5.58-2.096 2.026-2.246 1.702-5.536 1.144-7.665-.002 0-.477-1.785-.76-2.68-7.39 4.775-12.093 4.062-12.093 4.062.995-2.823 6.928-6.288 6.928-6.288.664-.431.674-1.005.635-1.388-.113-1.15-1.757-1.316-1.757-1.316-.777-.16-3.985-.427-4.14-3.358-.074-1.418 1.117-2.518 2.518-2.65.889-.059 1.563.11 2.355.495 0 0 1.934.83 2.802 3.38 0 0 .422 1.237.607 2.3.046.301.067.496.107.907l9.06-6.823q.281.458.541.945c5.523 10.343 1.83 22.698 1.082 24.941l2.661.425h.006s5.386-14.856-2.463-27.268q-.09-.142-.183-.28zm-19.144 7.766.004.002-.006-.004z"></path></svg>