<svg width="145" height="40" viewBox="0 0 145 40" fill="none" xmlns="http://www.w3.org/2000/svg">
<path d="M6.24747 35.8199L13.3837 12.8215C13.3852 12.8154 13.3852 12.8091 13.3837 12.8031C13.3821 12.7971 13.3791 12.7915 13.3748 12.787C13.3706 12.7824 13.3652 12.7791 13.3593 12.7771C13.3534 12.7752 13.3471 12.7748 13.341 12.7759C6.18627 14.3686 6.46095 19.6004 6.76553 21.5389C7.11058 22.0123 7.29692 22.5828 7.29783 23.1685C7.28996 23.9183 6.98658 24.6347 6.45361 25.162C5.92064 25.6894 5.20111 25.9852 4.45132 25.9852C2.89143 26.0008 0.930182 24.4922 0.930182 20.5313C0.923066 14.0981 6.70718 8.14893 17.4656 8.14893C27.4682 8.14893 33.537 13.3922 33.0545 20.2196L36.1857 10.1628C36.4203 9.51993 36.8846 8.98665 37.4891 8.66581C38.0936 8.34498 38.7955 8.25932 39.4594 8.42534C40.1233 8.59137 40.7023 8.99733 41.0846 9.56494C41.467 10.1325 41.6256 10.8216 41.53 11.4993C41.2169 12.7688 39.1104 19.4425 38.7831 20.4772C38.7814 20.4843 38.7822 20.4918 38.7854 20.4985C38.7885 20.5051 38.7938 20.5105 38.8003 20.5138C38.8069 20.5171 38.8144 20.5181 38.8216 20.5166C38.8288 20.5151 38.8353 20.5113 38.84 20.5056C44.7864 14.4041 51.3419 18.7735 48.901 26.0649L47.1077 31.8319C46.6694 33.1655 46.6281 34.4208 47.8193 34.4208C48.7815 34.4208 49.893 33.5455 51.0544 32.0596C51.0579 32.0553 51.0603 32.0502 51.0615 32.0448C51.0628 32.0394 51.0628 32.0337 51.0615 32.0283C50.8982 31.3337 50.8156 30.6226 50.8153 29.9091C50.8821 26.6957 52.1877 23.6323 54.4595 21.3587C56.7312 19.085 59.7936 17.7769 63.0069 17.7075C68.3071 17.7075 72.1713 21.1233 72.1713 26.2214C72.1592 27.9798 71.749 29.7125 70.9715 31.2896C70.9685 31.2958 70.9674 31.3026 70.9682 31.3094C70.969 31.3162 70.9718 31.3225 70.9761 31.3278C70.9804 31.333 70.9862 31.3369 70.9927 31.339C70.9992 31.3411 71.0061 31.3412 71.0127 31.3395C72.0813 31.0422 73.0661 30.5004 73.8891 29.7568C73.8939 29.7521 73.8974 29.7462 73.8991 29.7397C73.9304 29.6187 74.9879 26.1673 76.1478 22.3872L73.9432 22.3772C73.6839 22.3793 73.4279 22.3194 73.1966 22.2024C72.9652 22.0854 72.7652 21.9147 72.6132 21.7046C72.4612 21.4946 72.3617 21.2512 72.3229 20.9948C72.2842 20.7385 72.3073 20.4765 72.3904 20.2309C72.5629 19.6306 72.9196 19.0995 73.4102 18.7129C73.9008 18.3262 74.5005 18.1035 75.1245 18.0761H77.4786L79.1865 12.5254C79.3986 11.8173 79.8834 11.2224 80.5341 10.8717C81.1848 10.521 81.9482 10.4431 82.6564 10.6553C83.3645 10.8674 83.9594 11.3522 84.3101 12.0029C84.6608 12.6536 84.7387 13.417 84.5265 14.1252L83.2968 18.0733C84.982 18.0733 86.2672 18.0818 86.2672 18.0818C86.5275 18.0777 86.7851 18.1361 87.0181 18.2522C87.2511 18.3684 87.4529 18.5388 87.6063 18.7491C87.7598 18.9595 87.8604 19.2036 87.8998 19.461C87.9392 19.7184 87.9162 19.9815 87.8328 20.2281C87.6605 20.8286 87.3039 21.3597 86.8132 21.7464C86.3226 22.1331 85.7228 22.3558 85.0987 22.3829H81.9519L79.4384 30.4528C78.6029 33.157 79.4384 34.4151 81.1463 34.4151C82.0561 34.2928 82.9315 33.9866 83.7191 33.5151C84.5068 33.0436 85.1902 32.4166 85.7278 31.6725C85.732 31.6688 85.735 31.6638 85.7363 31.6583C85.4991 29.9325 85.6322 28.1761 86.1269 26.5058C86.6215 24.8356 87.4663 23.2899 88.6049 21.9716C89.7436 20.6533 91.15 19.5927 92.7305 18.8604C94.3111 18.1281 96.0295 17.7409 97.7714 17.7246C99.0371 17.6101 100.312 17.7829 101.502 18.2301C102.692 18.6772 103.765 19.3872 104.642 20.307C105.519 21.2269 106.177 22.3329 106.567 23.5425C106.957 24.7522 107.069 26.0342 106.894 27.2931C109.875 27.3814 109.795 29.5163 109.912 30.8954C110.138 33.4686 112.868 34.055 114.154 34.0266C114.749 34.0381 115.34 33.9284 115.891 33.7041C116.442 33.4799 116.941 33.1457 117.359 32.7221C117.776 32.2984 118.103 31.7942 118.319 31.2401C118.535 30.686 118.637 30.0936 118.616 29.4992C118.609 26.674 115.151 23.9086 115.151 23.9086C112.693 21.5432 110.371 19.3087 110.268 15.7776C110.158 12.0771 112.671 8.01657 118.446 7.85004C119.708 7.75919 120.975 7.95093 122.155 8.41133C123.334 8.87172 124.396 9.58918 125.263 10.5115C128.995 14.6276 123.165 18.4405 121.278 13.8619L121.241 13.7395C120.964 13.2474 120.536 12.8571 120.021 12.6258C119.505 12.3945 118.929 12.3344 118.378 12.4543C117.826 12.5741 117.327 12.8676 116.954 13.2918C116.581 13.7159 116.353 14.2484 116.305 14.8112C116.351 16.3127 117.834 17.7502 119.152 19.0169C126.581 25.8656 124.853 30.8484 124.624 31.6995C125.693 30.8885 126.594 29.8761 127.274 28.7192V28.7107L130.263 19.1749C130.493 18.498 130.975 17.9358 131.609 17.6049C132.242 17.274 132.979 17.1998 133.666 17.3978C134.353 17.5957 134.937 18.0506 135.298 18.668C135.658 19.2855 135.767 20.0179 135.602 20.7134L132.236 31.5003C131.534 33.7206 132.443 34.5204 133.516 34.5204C135.713 34.6926 138.699 30.3247 139.712 28.0233C140.317 26.489 142.829 27.3643 141.907 29.29C136.095 41.4261 126.436 40.1935 126.285 33.9212C126.285 33.9152 126.283 33.9092 126.28 33.9041C126.277 33.8989 126.272 33.8948 126.266 33.8922C126.261 33.8895 126.255 33.8884 126.249 33.889C126.243 33.8896 126.237 33.8919 126.232 33.8956C125.237 34.5906 124.125 35.1024 122.95 35.4071C122.913 35.4256 122.167 35.8939 122.167 35.8939C117.613 40.5095 107.524 40.5095 104.701 33.332C104.699 33.3264 104.696 33.3213 104.692 33.3174C104.687 33.3136 104.682 33.311 104.676 33.3099C104.67 33.3089 104.664 33.3095 104.658 33.3116C104.653 33.3138 104.648 33.3174 104.644 33.3221C104.399 33.6266 100.769 38.544 94.7128 38.433C93.2076 38.4951 91.7105 38.183 90.3555 37.5245C89.0006 36.866 87.8301 35.8818 86.9489 34.6599C83.1816 39.4364 73.8037 40.3529 73.5219 33.3135C73.5218 33.3077 73.5203 33.302 73.5174 33.2969C73.5145 33.2919 73.5103 33.2877 73.5053 33.2847C73.5004 33.2817 73.4947 33.28 73.4889 33.2798C73.483 33.2797 73.4773 33.281 73.4721 33.2836C72.0624 33.937 70.5336 34.294 68.9803 34.3326C68.9711 34.3332 68.9625 34.3373 68.9561 34.3439C67.8288 35.6185 66.4445 36.64 64.8942 37.3413C63.3439 38.0426 61.6627 38.4078 59.9611 38.413C58.4827 38.4855 57.0092 38.1925 55.6709 37.56C54.3327 36.9275 53.1709 35.9749 52.2884 34.7866C52.2851 34.7822 52.2808 34.7786 52.2758 34.7761C52.2709 34.7736 52.2654 34.7723 52.2599 34.7723C52.2544 34.7723 52.2489 34.7736 52.244 34.7761C52.239 34.7786 52.2348 34.7822 52.2314 34.7866C47.9175 40.0697 38.7888 40.4198 41.6552 30.5766L43.0486 26.2214C44.691 21.4037 39.9516 21.5531 37.3556 25.0387C37.355 25.0429 37.355 25.0473 37.3556 25.0515L33.7035 36.6055C32.414 40.1523 27.3117 38.3348 28.3862 35.0171L31.4377 25.4458C31.4407 25.4376 31.4404 25.4285 31.437 25.4205C31.4336 25.4125 31.4272 25.4061 31.4192 25.4026C31.4111 25.3991 31.4021 25.3989 31.3939 25.4019C31.3857 25.4049 31.3789 25.4109 31.375 25.4187C28.7634 29.9134 21.7453 33.4089 14.2049 29.6173C14.2004 29.6147 14.1954 29.6132 14.1903 29.6128C14.1851 29.6125 14.1799 29.6133 14.1752 29.6152C14.1704 29.6171 14.1661 29.6201 14.1626 29.6239C14.1591 29.6277 14.1565 29.6323 14.1551 29.6372C14.1551 29.6372 11.7754 37.3214 11.7469 37.3072C11.5694 37.8929 11.2105 38.4071 10.722 38.7757C10.2334 39.1443 9.64043 39.3482 9.02851 39.3581C8.58968 39.3754 8.15301 39.2884 7.7543 39.1043C7.35559 38.9202 7.00622 38.6441 6.73483 38.2989C6.46344 37.9536 6.27777 37.5489 6.19305 37.118C6.10834 36.687 6.12698 36.2422 6.24747 35.8199ZM91.3254 28.1343C90.7063 31.3295 92.3858 33.9184 95.0743 33.9184C97.7628 33.9184 100.446 31.3295 101.065 28.1343C101.684 24.9391 100.006 22.3502 97.3159 22.3502C94.626 22.3502 91.9445 24.9362 91.3254 28.1314V28.1343ZM56.5667 28.1343C55.9476 31.3295 57.6256 33.9184 60.3155 33.9184C63.0055 33.9184 65.6869 31.3295 66.306 28.1343C66.9251 24.9391 65.2457 22.3502 62.5572 22.3502C59.8686 22.3502 57.1858 24.9362 56.5667 28.1314V28.1343ZM15.2752 25.9467C16.4762 26.488 17.7823 26.7563 19.0995 26.7324C20.1045 26.7775 21.1081 26.6161 22.0482 26.258C22.9884 25.8999 23.8451 25.3528 24.5654 24.6505C25.2858 23.9481 25.8544 23.1056 26.2362 22.1748C26.6179 21.244 26.8047 20.2448 26.785 19.2389C26.785 15.9042 24.5078 13.2356 19.4126 12.5696L15.2752 25.9467ZM126.959 9.28753C130.844 11.1278 132.682 9.41136 134.503 7.19962C133.35 9.81414 132.977 12.4087 136.426 14.9549C132.541 13.1132 130.375 14.6347 128.551 16.8479C129.709 14.2333 130.408 11.8337 126.959 9.28753ZM135.935 6.14498C138.936 7.56824 140.358 6.24177 141.77 4.53101C140.879 6.55204 140.59 8.5574 143.256 10.5258C142.254 9.91545 141.051 9.72675 139.91 10.0009C138.769 10.2751 137.784 10.9899 137.169 11.9889C138.059 9.96785 138.6 8.11335 135.935 6.14498ZM133.161 1.81402C133.767 2.17625 134.492 2.28658 135.179 2.12139C135.866 1.9562 136.461 1.52863 136.837 0.930176C136.655 1.22583 136.534 1.55476 136.48 1.89777C136.427 2.24078 136.443 2.59098 136.526 2.92793C136.609 3.26488 136.759 3.58182 136.967 3.86024C137.174 4.13866 137.435 4.37298 137.734 4.54951C137.127 4.1876 136.403 4.0773 135.716 4.2422C135.03 4.4071 134.435 4.83411 134.059 5.43193C134.241 5.13631 134.362 4.80741 134.415 4.46445C134.468 4.12149 134.452 3.77137 134.369 3.43452C134.285 3.09768 134.135 2.78088 133.928 2.50264C133.72 2.2244 133.46 1.9903 133.161 1.81402Z" fill="#EB5D0B"/>
</svg>
